<?xml version="1.0" encoding="utf-8"?>
<!-- Generator: Adobe Illustrator 27.7.0, SVG Export Plug-In . SVG Version: 6.00 Build 0)  -->
<svg version="1.1" id="Layer_1" xmlns="http://www.w3.org/2000/svg" xmlns:xlink="http://www.w3.org/1999/xlink" x="0px" y="0px"
	 viewBox="0 0 1366 433" style="enable-background:new 0 0 1366 433;" xml:space="preserve">
<style type="text/css">
	.st0{fill:#010101;}
	.st1{fill:#D42027;}
</style>
<g>
	<path class="st0" d="M123.3,187.71c0,10.36-3.57,18.67-10.71,24.95c-6.36,5.57-14.28,8.36-23.77,8.36
		c-11.53,0-20.44-3.73-26.72-11.18c-4.79-5.81-7.18-12.63-7.18-20.48c0-5.96,1.33-11.26,4-15.89l16.83-3.77
		c-2.98,5.02-4.47,10.75-4.47,17.18c0,5.49,1.55,9.81,4.65,12.95c3.1,3.14,7.39,4.71,12.89,4.71c5.33,0,9.55-1.51,12.65-4.53
		c3.1-3.02,4.65-7.12,4.65-12.3v-56.02l17.18-9.06V187.71z"/>
	<path class="st0" d="M166.73,198.54c-7.22,0-12.87-2.31-16.95-6.94c-3.53-4.08-5.3-9.3-5.3-15.65v-44.25l17.07-9.06v52.61
		c0,2.51,0.51,4.28,1.53,5.3c1.02,1.02,2.78,1.53,5.3,1.53h11.53v16.48H166.73z"/>
	<path class="st0" d="M215.81,182.06h11.42v16.48h-13.06c-5.49,0-10.04-1.33-13.65-4c-3.77,2.67-8.36,4-13.77,4h-13.18v-16.48h11.53
		c2.51,0,4.28-0.51,5.3-1.53c1.02-1.02,1.53-2.78,1.53-5.3v-20.6l17.07-9.06v29.66c0,2.51,0.49,4.28,1.47,5.3
		C211.43,181.55,213.22,182.06,215.81,182.06z M183.91,208.66c2.59,0,4.69,0.8,6.3,2.41c1.61,1.61,2.41,3.71,2.41,6.3
		c0,2.67-0.81,4.81-2.41,6.41c-1.61,1.61-3.71,2.41-6.3,2.41c-2.67,0-4.81-0.82-6.41-2.47c-1.61-1.65-2.41-3.77-2.41-6.36
		s0.81-4.69,2.41-6.3C179.11,209.46,181.25,208.66,183.91,208.66z M203.57,208.66c2.59,0,4.67,0.78,6.24,2.35
		c1.57,1.57,2.35,3.69,2.35,6.36c0,2.67-0.79,4.81-2.35,6.41c-1.57,1.61-3.65,2.41-6.24,2.41c-2.67,0-4.81-0.82-6.41-2.47
		c-1.61-1.65-2.41-3.77-2.41-6.36s0.8-4.69,2.41-6.3C198.76,209.46,200.9,208.66,203.57,208.66z"/>
	<path class="st0" d="M263.24,182.06h11.42v16.48h-13.06c-5.49,0-10.04-1.33-13.65-4c-3.77,2.67-8.36,4-13.77,4h-13.18v-16.48h11.53
		c2.51,0,4.28-0.51,5.3-1.53c1.02-1.02,1.53-2.78,1.53-5.3v-20.6l17.07-9.06v29.66c0,2.51,0.49,4.28,1.47,5.3
		C258.87,181.55,260.65,182.06,263.24,182.06z M230.76,136.98c-2.67,0-4.81-0.82-6.41-2.47c-1.61-1.65-2.41-3.8-2.41-6.47
		c0-2.59,0.81-4.69,2.41-6.3c1.61-1.61,3.75-2.41,6.41-2.41c2.59,0,4.67,0.79,6.24,2.35c1.57,1.57,2.35,3.69,2.35,6.36
		c0,2.75-0.79,4.92-2.35,6.53C235.42,136.18,233.35,136.98,230.76,136.98z M250.41,136.98c-2.67,0-4.81-0.82-6.41-2.47
		c-1.61-1.65-2.41-3.8-2.41-6.47c0-2.59,0.8-4.69,2.41-6.3c1.61-1.61,3.75-2.41,6.41-2.41c2.59,0,4.67,0.79,6.24,2.35
		c1.57,1.57,2.35,3.69,2.35,6.36c0,2.75-0.79,4.92-2.35,6.53C255.08,136.18,253,136.98,250.41,136.98z"/>
	<path class="st0" d="M268.42,198.54v-16.48h17.77c12.79,0,23.03-3.61,30.72-10.83c-4.94-8-10.75-12-17.42-12
		c-6.04,0-13.03,3.41-20.95,10.24v-14.83c6.67-7.45,14.24-11.18,22.72-11.18h0.24c6.28,0,12.36,2.26,18.24,6.77
		c5.88,4.51,11.1,10.93,15.65,19.24v6.24c-5.73,7.3-12.87,12.93-21.42,16.89c-8.55,3.96-17.85,5.94-27.89,5.94H268.42z"/>
	<path class="st0" d="M397.88,131.69l17.18-9.06v50.26c0,7.93-2.43,14.28-7.3,19.07c-4.55,4.4-10.48,6.59-17.77,6.59h-46.37
		l8.59-16.48h14.83v-35.07l17.07-9.06v44.14h5.06c3.22,0,5.47-0.69,6.77-2.06c1.29-1.37,1.94-3.78,1.94-7.24V131.69z M389.88,123.56
		l-4.12,7.65h-23.07l4.12-7.65h3.65c-0.86-1.65-1.29-3.33-1.29-5.06c0-2.59,0.96-4.83,2.88-6.71c1.92-1.88,4.22-2.82,6.89-2.82
		c2.67,0,5.06,0.94,7.18,2.82v7.53c-2.04-1.8-4-2.71-5.88-2.71c-2.59,0-3.88,1.06-3.88,3.18c0,1.18,0.51,2.43,1.53,3.77H389.88z"/>
	<path class="st0" d="M436.25,198.54v-66.85l17.07-9.06v75.91H436.25z"/>
	<path class="st0" d="M524.87,198.54c-6.83,0-12.2-2.31-16.12-6.94c-3.45-4-5.18-9.18-5.18-15.54v-10.83l17.07-9.06v18.95
		c0,2.59,0.49,4.4,1.47,5.41c0.98,1.02,2.73,1.53,5.24,1.53h38.02c2.51,0,4.26-0.51,5.24-1.53c0.98-1.02,1.47-2.82,1.47-5.41v-20.48
		l17.07-9.06v30.48c0,7.3-2.28,12.99-6.83,17.07c-4,3.61-9.14,5.41-15.42,5.41H524.87z M535.94,143.81c-2.67,0-4.81-0.82-6.41-2.47
		c-1.61-1.65-2.41-3.8-2.41-6.47c0-2.59,0.8-4.67,2.41-6.24c1.61-1.57,3.75-2.35,6.41-2.35c2.59,0,4.67,0.79,6.24,2.35
		c1.57,1.57,2.35,3.65,2.35,6.24c0,2.75-0.79,4.92-2.35,6.53C540.61,143,538.53,143.81,535.94,143.81z M555.59,143.81
		c-2.67,0-4.81-0.82-6.41-2.47c-1.61-1.65-2.41-3.8-2.41-6.47c0-2.59,0.8-4.67,2.41-6.24c1.61-1.57,3.75-2.35,6.41-2.35
		c2.59,0,4.67,0.79,6.24,2.35c1.57,1.57,2.35,3.65,2.35,6.24c0,2.75-0.79,4.92-2.35,6.53C560.26,143,558.18,143.81,555.59,143.81z"
		/>
	<path class="st0" d="M632.57,198.54c-7.22,0-12.87-2.31-16.95-6.94c-3.53-4.08-5.3-9.3-5.3-15.65v-44.25l17.07-9.06v52.61
		c0,2.51,0.51,4.28,1.53,5.3c1.02,1.02,2.78,1.53,5.3,1.53h11.53v16.48H632.57z"/>
	<path class="st0" d="M760.73,182.06h11.42v16.48h-13.06c-5.34,0-9.89-1.33-13.65-4c-3.77,2.67-8.36,4-13.77,4H680
		c-5.49,0-10.04-1.33-13.65-4c-3.77,2.67-8.36,4-13.77,4h-13.18v-16.48h11.53c2.51,0,4.28-0.51,5.3-1.53
		c1.02-1.02,1.53-2.78,1.53-5.3v-15.06l17.07-9.06v24.13c0,4.24,1.77,6.51,5.3,6.83c3.84-11.14,9.38-20.2,16.59-27.19
		c8-7.61,17.11-11.42,27.3-11.42c9.49,0,17.07,3.3,22.71,9.89c4.79,5.49,7.18,12.28,7.18,20.36v2.24
		C753.91,180.02,756.18,182.06,760.73,182.06z M731.08,182.06c2.35,0,3.9-0.43,4.65-1.29c0.75-0.86,1.12-2.75,1.12-5.65v-1.41
		c0-4.24-1.18-7.67-3.53-10.3c-2.35-2.63-5.41-3.94-9.18-3.94c-5.41,0-10.54,2.02-15.36,6.06c-4.83,4.04-8.69,9.55-11.59,16.54
		H731.08z"/>
	<path class="st0" d="M819.58,182.06v16.48h-13.06c-5.49,0-10.04-1.33-13.65-4c-3.77,2.67-8.36,4-13.77,4h-13.18v-16.48h11.53
		c2.51,0,4.28-0.51,5.3-1.53c1.02-1.02,1.53-2.78,1.53-5.3v-20.6l17.07-9.06v29.66c0,2.51,0.51,4.28,1.53,5.3
		c1.02,1.02,2.78,1.53,5.3,1.53H819.58z M792.63,134.98c-2.67,0-4.81-0.8-6.41-2.41c-1.61-1.61-2.41-3.75-2.41-6.41
		c0-2.67,0.8-4.79,2.41-6.36c1.61-1.57,3.75-2.35,6.41-2.35c2.59,0,4.67,0.79,6.24,2.35c1.57,1.57,2.35,3.69,2.35,6.36
		c0,2.67-0.79,4.81-2.35,6.41C797.3,134.18,795.22,134.98,792.63,134.98z"/>
	<path class="st0" d="M831.7,165.7c0-7.22,2.24-12.87,6.71-16.95c3.92-3.53,9.02-5.3,15.3-5.3c7.92,0,14.08,2.9,18.48,8.71
		c3.77,4.94,5.65,11.22,5.65,18.83c0,8.71-2.39,15.61-7.18,20.71c-4.16,4.55-9.53,6.83-16.12,6.83c-6.2,0-11.22-1.18-15.07-3.53
		c-3.53,2.35-7.85,3.53-12.95,3.53h-13.18v-16.48h11.53c2.51,0,4.28-0.51,5.3-1.53c1.02-1.02,1.53-2.78,1.53-5.3V165.7z
		 M848.77,177.47c0,3.06,1.65,4.59,4.94,4.59c4.86,0,7.3-3.88,7.3-11.65c0-7.3-2.43-10.95-7.3-10.95c-3.29,0-4.94,1.92-4.94,5.77
		V177.47z"/>
</g>
<g>
	<path class="st0" d="M117.3,259.14h-6.85c-0.16-7.43-4.91-11.15-14.26-11.15c-3.82,0-6.9,0.86-9.24,2.59c-2.34,1.73-3.5,4-3.5,6.81
		c0,2.12,0.7,3.81,2.11,5.06c1.41,1.25,3.84,2.32,7.29,3.23l13.54,3.5c8.6,2.28,12.9,7.06,12.9,14.34c0,5.26-2.1,9.53-6.29,12.82
		c-3.72,2.87-9.05,4.3-16.01,4.3c-8.81,0-15.21-2.65-19.19-7.96c-2.12-2.87-3.24-6.72-3.35-11.55h6.85v0.16
		c0,4.14,1.42,7.34,4.26,9.6c2.84,2.26,6.81,3.38,11.91,3.38c4.67,0,8.15-0.77,10.43-2.31c2.71-1.86,4.06-4.46,4.06-7.81
		c0-4.25-3.48-7.25-10.43-9l-14.18-3.66c-7.43-1.91-11.15-6.29-11.15-13.14c0-5.42,2.04-9.61,6.13-12.58c3.56-2.6,8.26-3.9,14.1-3.9
		c8.28,0,14.2,2.42,17.76,7.25c2.07,2.81,3.11,5.87,3.11,9.16C117.3,258.42,117.3,258.72,117.3,259.14z"/>
	<path class="st0" d="M180.38,272.52h-6.53c-0.8-5.73-4.04-8.6-9.72-8.6c-3.56,0-6.35,1.41-8.36,4.22
		c-2.02,2.81-3.03,6.72-3.03,11.71c0,4.94,1.19,8.71,3.58,11.31c2.02,2.28,4.73,3.42,8.12,3.42c5.47,0,8.73-2.97,9.8-8.92h6.61
		c-0.43,5.1-2.26,8.95-5.5,11.55c-2.81,2.28-6.5,3.42-11.07,3.42c-6,0-10.67-2.12-14.02-6.37c-2.87-3.66-4.3-8.47-4.3-14.42
		c0-7.11,1.88-12.69,5.65-16.73c3.24-3.45,7.43-5.18,12.58-5.18c5.95,0,10.41,1.99,13.38,5.97
		C179.13,265.99,180.06,268.86,180.38,272.52z"/>
	<path class="st0" d="M245.21,294.26v5.26c-1.81,0.64-3.21,0.96-4.22,0.96c-4.25,0-6.56-1.94-6.93-5.81
		c-2.92,3.98-7.57,5.97-13.94,5.97c-4.41,0-7.83-1.22-10.27-3.66c-2.12-2.12-3.19-4.86-3.19-8.2c0-3.82,1.35-6.77,4.06-8.84
		c1.54-1.17,4.75-2.31,9.64-3.42l13.38-3.03l0.08-3.42c0-4.09-3.08-6.13-9.24-6.13c-5.89,0-9.05,2.39-9.48,7.17h-6.61
		c0.16-3.61,1.06-6.37,2.71-8.28c2.81-3.24,7.38-4.86,13.7-4.86c10.25,0,15.37,3.72,15.37,11.15v22.86c0,2.02,0.88,3.03,2.63,3.03
		c0.21,0,0.77-0.16,1.67-0.48C244.89,294.4,245.1,294.32,245.21,294.26z M233.82,278.81l-10.51,2.71c-3.77,0.96-6.36,1.94-7.77,2.95
		c-1.41,1.01-2.11,2.42-2.11,4.22c0,4.2,2.71,6.29,8.12,6.29c3.82,0,7.06-1.25,9.72-3.74c1.7-1.54,2.55-3.29,2.55-5.26V278.81z"/>
	<path class="st0" d="M273.09,258.82h6.05v5.89c3.19-4.51,7.38-6.77,12.58-6.77c5.04,0,8.71,2.02,10.99,6.05
		c1.96-2.28,3.86-3.86,5.69-4.74c1.83-0.88,4.1-1.31,6.81-1.31c7.96,0,11.95,3.74,11.95,11.23v30.58h-6.53v-28.03
		c0-5.42-2.55-8.12-7.65-8.12c-2.66,0-4.91,1.04-6.77,3.11c-1.86,2.07-2.79,4.54-2.79,7.41v25.65h-6.53v-28.03
		c0-5.42-2.52-8.12-7.57-8.12c-2.71,0-5.01,1.02-6.89,3.07c-1.89,2.04-2.83,4.53-2.83,7.45v25.65h-6.53V258.82z"/>
	<path class="st0" d="M403.15,275.63v24.13h-7.25v-57.03h23.57c6,0,10.51,1.65,13.54,4.94c2.65,2.87,3.98,6.8,3.98,11.79
		c0,5.04-1.62,9.05-4.86,12.03c-2.97,2.76-6.66,4.14-11.07,4.14H403.15z M403.15,269.18h15.21c3.45,0,6.16-0.88,8.12-2.63
		c1.96-1.75,2.95-4.22,2.95-7.41c0-3.13-0.98-5.58-2.95-7.33c-1.96-1.75-4.67-2.63-8.12-2.63h-15.21V269.18z"/>
	<path class="st0" d="M473.55,242.73v57.03h-6.53v-57.03H473.55z"/>
	<path class="st0" d="M541.57,294.26v5.26c-1.81,0.64-3.21,0.96-4.22,0.96c-4.25,0-6.56-1.94-6.93-5.81
		c-2.92,3.98-7.57,5.97-13.94,5.97c-4.41,0-7.83-1.22-10.27-3.66c-2.12-2.12-3.19-4.86-3.19-8.2c0-3.82,1.35-6.77,4.06-8.84
		c1.54-1.17,4.75-2.31,9.64-3.42l13.38-3.03l0.08-3.42c0-4.09-3.08-6.13-9.24-6.13c-5.89,0-9.05,2.39-9.48,7.17h-6.61
		c0.16-3.61,1.06-6.37,2.71-8.28c2.81-3.24,7.38-4.86,13.7-4.86c10.25,0,15.37,3.72,15.37,11.15v22.86c0,2.02,0.88,3.03,2.63,3.03
		c0.21,0,0.77-0.16,1.67-0.48C541.25,294.4,541.46,294.32,541.57,294.26z M530.18,278.81l-10.51,2.71
		c-3.77,0.96-6.36,1.94-7.77,2.95c-1.41,1.01-2.11,2.42-2.11,4.22c0,4.2,2.71,6.29,8.12,6.29c3.82,0,7.06-1.25,9.72-3.74
		c1.7-1.54,2.55-3.29,2.55-5.26V278.81z"/>
	<path class="st0" d="M585.45,258.82v5.26h-8.36v27.24c0,0.96,0.33,1.77,1,2.43c0.66,0.66,1.53,1,2.59,1c1.01,0,2.55-0.24,4.62-0.72
		l0.72,5.73c-3.29,0.58-5.79,0.88-7.49,0.88c-5.26,0-7.88-2.15-7.88-6.45v-30.11h-5.57v-5.26h5.57v-8.36l6.45-2.95v11.31H585.45z"/>
	<path class="st0" d="M628.46,258.82v5.26h-6.77v35.68h-6.45v-35.68h-5.5v-5.26h5.5v-7.01c0-2.92,0.84-5.2,2.51-6.85
		c1.67-1.65,4.02-2.47,7.05-2.47c1.17,0,2.39,0.13,3.66,0.4v5.42h-0.72c-0.58-0.05-1.09-0.08-1.51-0.08c-3.03,0-4.54,1.38-4.54,4.14
		v6.45H628.46z"/>
	<path class="st0" d="M672.26,257.95c6.16,0,10.86,2.15,14.1,6.45c2.87,3.72,4.3,8.76,4.3,15.13c0,7.12-1.86,12.53-5.58,16.25
		c-3.19,3.24-7.49,4.86-12.9,4.86c-6.27,0-11.04-2.1-14.34-6.29c-2.87-3.66-4.3-8.6-4.3-14.81c0-7.22,1.88-12.77,5.65-16.65
		C662.44,259.59,666.8,257.95,672.26,257.95z M672.26,263.92c-3.72,0-6.64,1.39-8.76,4.18c-2.12,2.79-3.19,6.6-3.19,11.43
		c0,5.04,1.19,8.89,3.58,11.55c2.07,2.34,4.83,3.5,8.28,3.5c3.66,0,6.52-1.33,8.56-3.98c2.04-2.65,3.07-6.34,3.07-11.07
		c0-5.2-1.17-9.19-3.5-11.95C678.29,265.14,675.61,263.92,672.26,263.92z"/>
	<path class="st0" d="M720.37,258.82h6.05v7.49c2.39-5.63,6.16-8.44,11.31-8.44c0.64,0,1.41,0.08,2.31,0.24v6.69
		c-4.25,0.05-7.17,0.66-8.76,1.83c-2.92,2.12-4.38,6.08-4.38,11.87v21.27h-6.53V258.82z"/>
	<path class="st0" d="M767.2,258.82h6.05v5.89c3.19-4.51,7.38-6.77,12.58-6.77c5.04,0,8.71,2.02,10.99,6.05
		c1.96-2.28,3.86-3.86,5.69-4.74c1.83-0.88,4.1-1.31,6.81-1.31c7.96,0,11.95,3.74,11.95,11.23v30.58h-6.53v-28.03
		c0-5.42-2.55-8.12-7.65-8.12c-2.66,0-4.91,1.04-6.77,3.11c-1.86,2.07-2.79,4.54-2.79,7.41v25.65h-6.53v-28.03
		c0-5.42-2.52-8.12-7.57-8.12c-2.71,0-5.01,1.02-6.89,3.07c-1.88,2.04-2.83,4.53-2.83,7.45v25.65h-6.53V258.82z"/>
	<path class="st0" d="M882.13,270.05h-7.17c-0.21-4.09-2.95-6.13-8.2-6.13c-2.71,0-4.85,0.52-6.41,1.55
		c-1.57,1.04-2.35,2.43-2.35,4.18c0,2.66,2.52,4.57,7.57,5.73l6.29,1.43c4.09,0.96,7.03,2.31,8.84,4.06
		c1.8,1.75,2.71,4.14,2.71,7.17c0,3.88-1.51,6.94-4.54,9.2c-3.03,2.26-7.12,3.38-12.26,3.38c-5.63,0-9.9-1.33-12.82-3.98
		c-2.44-2.18-3.74-5.07-3.9-8.68h7.41c0.42,1.86,1.01,3.21,1.75,4.06c1.43,1.7,4.11,2.55,8.04,2.55c2.92,0,5.24-0.54,6.97-1.63
		c1.73-1.09,2.59-2.54,2.59-4.34c0-2.71-2.1-4.57-6.29-5.58l-6.13-1.43c-4.67-1.11-7.94-2.44-9.8-3.98
		c-2.12-1.75-3.19-4.27-3.19-7.57c0-3.72,1.42-6.66,4.26-8.84c2.84-2.18,6.65-3.27,11.43-3.27c4.99,0,8.87,1.25,11.63,3.74
		C880.93,263.87,882.13,266.66,882.13,270.05z"/>
</g>
<path class="st1" d="M1038.29,131.35c8.74-5.2,16.52-11.48,23.82-18.54c6.49-6.27,13.13-12.59,20.52-17.7
	c24.41-16.87,51.91-20.23,80.63-16.84c23.54,2.77,45.86,10.01,67.63,19.13c0.66,0.28,1.27,0.67,2.74,1.46
	c-5.18,0.27-9.38,0.49-13.58,0.71c20.68,12.03,40.89,24.34,55.91,43.79c-4.83-2.46-9.21-5.08-13.89-6.94
	c-4.59-1.83-9.5-2.88-14.26-4.27c26.28,20.66,43.49,47.35,55.83,77.84c0.07-0.53,0.2-0.84,0.14-1.11
	c-4.08-19.25-9.82-37.87-20.94-54.39c-1.53-2.27-2.15-4.51-2.14-7.24c0.09-19.05,0-38.1,0.1-57.16c0.01-2.36-0.65-3.36-2.94-4.15
	c-31.76-10.97-64.2-19.07-97.55-23.33c-29.43-3.76-58.92-4.62-88.46-1.27c-36.03,4.08-70.99,12.74-105.26,24.43
	c-2.69,0.92-3.33,2.16-3.32,4.85c0.11,24.67-0.07,49.35,0.13,74.02c0.1,12.9,0.29,25.83,1.34,38.67
	c1.88,22.98,7.4,45.13,17.23,66.08c16.42,34.99,42.86,60.18,76.57,78.25c1.25,0.67,2.49,1.36,4.02,2.2
	c-8.99,8.78-18.59,15.99-29.27,21.75c-0.74,0.4-2.2,0.11-3.01-0.39c-35.68-21.74-62.48-51.39-79.43-89.72
	c-14.44-32.67-20.71-67.15-21.23-102.62c-0.55-37.47-0.12-74.96-0.24-112.44c-0.01-2.66,0.88-3.76,3.26-4.69
	c23.79-9.25,48.01-17.11,72.89-22.78c46.3-10.55,92.99-16.22,140.62-11.76c50.18,4.71,98.64,16.26,145.53,34.62
	c2.35,0.92,3,2.11,2.99,4.56c-0.09,35.81,0.01,71.63-0.08,107.44c-0.06,24.14-2.94,47.97-8.91,71.38
	c-11.81,46.32-35.58,84.91-74.04,113.91c-29.39,22.17-62.75,35.73-98.12,44.81c-1.05,0.27-2.32,0.21-3.35-0.12
	c-13.28-4.17-26.65-8.11-39.77-12.76c-8.19-2.9-15.99-6.89-24.28-10.53c5.89-4.2,11.33-7.85,16.51-11.83
	c10.5-8.09,19.61-17.41,25.11-29.75c6.51-14.61,6.12-29.74,3.35-45.04c-0.46-2.56-1.02-5.1-1.63-7.63c-0.58-2.4-1.29-4.77-1.94-7.16
	c-0.39,0.02-0.78,0.03-1.17,0.05c-0.5,6.96-1,13.93-1.54,21.45c-15.97-17.71-26.78-36.87-24.15-61.45
	c-4.81,8.17-6.08,16.98-6.39,26.06c-0.36-0.36-0.53-0.71-0.63-1.09c-3.29-12.98-5.36-26.11-4.56-39.54
	c1.89-31.66,18.48-51.49,49.45-59.28c0.63-0.16,1.24-0.44,1.85-0.67c-12.26-0.37-24.24,0.71-35.3,6.31
	c-2.14,1.08-3.33,0.79-4.71-0.89c-4.53-5.51-10.5-7.72-17.48-7.04c-10.55,1.04-21.16,1.8-31.61,3.53
	c-14.13,2.34-27.5,7.2-40.01,14.51C1002.18,159.94,1017.96,143.44,1038.29,131.35z M1084.73,122.26
	c12.42,7.68,29.13,1.93,41.12-12.93C1109.69,106.18,1091.51,109.55,1084.73,122.26z"/>
</svg>
